<svg width="180" height="166" viewBox="0 0 180 166" fill="none" xmlns="http://www.w3.org/2000/svg">
<rect width="180" height="166" fill="white"/>
<path fill-rule="evenodd" clip-rule="evenodd" d="M31.5879 60.2919C29.4707 58.1881 29.4707 54.7772 31.5879 52.6733L48.5828 35.7855C56.3457 28.0715 68.9319 28.0715 76.6948 35.7855L93.6897 52.6733C95.8069 54.7772 95.8069 58.1881 93.6897 60.2919C91.5726 62.3957 88.14 62.3957 86.0228 60.2919L69.0279 43.4041C65.4993 39.8977 59.7783 39.8977 56.2497 43.4041L39.2548 60.2919C37.1376 62.3957 33.705 62.3957 31.5879 60.2919ZM31.5879 70.704C33.705 68.6002 37.1376 68.6002 39.2548 70.704L56.2497 87.5919C59.7783 91.0982 65.4993 91.0982 69.0279 87.5919L86.0228 70.704C88.14 68.6002 91.5726 68.6002 93.6897 70.704C95.8069 72.8078 95.8069 76.2188 93.6897 78.3226L76.6948 95.2104C68.9319 102.924 56.3457 102.924 48.5828 95.2104L31.5879 78.3226C29.4707 76.2188 29.4707 72.8078 31.5879 70.704Z" fill="#6C8B89"/>
<path fill-rule="evenodd" clip-rule="evenodd" d="M86.3103 60.4389C84.1931 58.335 84.1931 54.9241 86.3103 52.8203L103.305 35.9324C111.068 28.2184 123.654 28.2184 131.417 35.9324L148.412 52.8203C150.529 54.9241 150.529 58.335 148.412 60.4389C146.295 62.5427 142.862 62.5427 140.745 60.4389L123.75 43.551C120.222 40.0446 114.501 40.0446 110.972 43.551L93.9772 60.4389C91.86 62.5427 88.4274 62.5427 86.3103 60.4389ZM86.3103 70.8509C88.4274 68.7471 91.86 68.7471 93.9772 70.8509L110.972 87.7388C114.501 91.2451 120.222 91.2451 123.75 87.7388L140.745 70.8509C142.862 68.7471 146.295 68.7471 148.412 70.8509C150.529 72.9547 150.529 76.3657 148.412 78.4695L131.417 95.3574C123.654 103.071 111.068 103.071 103.305 95.3574L86.3103 78.4695C84.1931 76.3657 84.1931 72.9547 86.3103 70.8509Z" fill="#6C8B89"/>
<path d="M30 131.479V117.939H34.3614C35.558 117.939 36.6336 118.212 37.5883 118.758C38.5431 119.297 39.287 120.063 39.8202 121.055C40.3596 122.04 40.6324 123.147 40.6386 124.374V124.998C40.6386 126.237 40.3751 127.35 39.8481 128.336C39.3273 129.316 38.5896 130.084 37.6348 130.642C36.6863 131.194 35.6262 131.473 34.4544 131.479H30ZM33.2641 120.459V128.968H34.3986C35.3348 128.968 36.0539 128.637 36.5561 127.973C37.0583 127.304 37.3094 126.312 37.3094 124.998V124.412C37.3094 123.104 37.0583 122.118 36.5561 121.454C36.0539 120.791 35.3224 120.459 34.3614 120.459H33.2641Z" fill="black"/>
<path d="M47.0366 131.665C45.4929 131.665 44.2436 131.206 43.2889 130.289C42.3342 129.365 41.8568 128.166 41.8568 126.69V126.43C41.8568 125.4 42.0459 124.492 42.4241 123.705C42.8084 122.918 43.3664 122.31 44.098 121.882C44.8295 121.448 45.6975 121.231 46.7018 121.231C48.1153 121.231 49.2312 121.671 50.0496 122.552C50.8679 123.426 51.2771 124.647 51.2771 126.216V127.434H45.0465C45.1581 127.998 45.403 128.441 45.7812 128.764C46.1593 129.086 46.6491 129.247 47.2505 129.247C48.2424 129.247 49.0174 128.9 49.5753 128.206L51.0074 129.898C50.6169 130.438 50.062 130.869 49.3428 131.191C48.6299 131.507 47.8611 131.665 47.0366 131.665ZM46.6832 123.649C45.7657 123.649 45.2201 124.257 45.0465 125.472H48.2083V125.23C48.2207 124.728 48.0936 124.34 47.827 124.068C47.5604 123.789 47.1792 123.649 46.6832 123.649Z" fill="black"/>
<path d="M57.8146 128.652C57.8146 128.386 57.6751 128.172 57.3962 128.011C57.1172 127.849 56.5871 127.682 55.806 127.508C55.0248 127.335 54.38 127.108 53.8717 126.83C53.3633 126.544 52.9758 126.2 52.7092 125.797C52.4427 125.394 52.3094 124.932 52.3094 124.412C52.3094 123.488 52.6906 122.728 53.4532 122.133C54.2157 121.532 55.2139 121.231 56.4476 121.231C57.7743 121.231 58.8407 121.532 59.6466 122.133C60.4526 122.735 60.8555 123.525 60.8555 124.505H57.7123C57.7123 123.699 57.2877 123.296 56.4383 123.296C56.1097 123.296 55.8339 123.389 55.6107 123.575C55.3875 123.754 55.2759 123.981 55.2759 124.254C55.2759 124.533 55.4123 124.759 55.6851 124.932C55.9578 125.106 56.3918 125.249 56.987 125.36C57.5883 125.472 58.1153 125.605 58.5679 125.76C60.0806 126.281 60.837 127.214 60.837 128.559C60.837 129.477 60.4278 130.224 59.6094 130.8C58.7973 131.377 57.7433 131.665 56.4476 131.665C55.5859 131.665 54.8171 131.51 54.1414 131.2C53.4656 130.89 52.9386 130.469 52.5604 129.936C52.1823 129.402 51.9932 128.841 51.9932 128.252H54.9225C54.9349 128.717 55.0899 129.058 55.3875 129.275C55.6851 129.486 56.0663 129.591 56.5313 129.591C56.9591 129.591 57.2784 129.505 57.4892 129.331C57.7061 129.157 57.8146 128.931 57.8146 128.652Z" fill="black"/>
<path d="M65.6169 131.479H62.4737V121.417H65.6169V131.479ZM62.2877 118.823C62.2877 118.376 62.4489 118.011 62.7712 117.725C63.0936 117.44 63.5121 117.298 64.0267 117.298C64.5412 117.298 64.9597 117.44 65.2821 117.725C65.6045 118.011 65.7657 118.376 65.7657 118.823C65.7657 119.269 65.6045 119.635 65.2821 119.92C64.9597 120.205 64.5412 120.348 64.0267 120.348C63.5121 120.348 63.0936 120.205 62.7712 119.92C62.4489 119.635 62.2877 119.269 62.2877 118.823Z" fill="black"/>
<path d="M67.1885 126.374C67.1885 125.357 67.3559 124.458 67.6906 123.677C68.0254 122.896 68.5059 122.294 69.1321 121.873C69.7582 121.445 70.4867 121.231 71.3174 121.231C72.3652 121.231 73.1835 121.585 73.7725 122.291L73.8841 121.417H76.7297V131.098C76.7297 131.985 76.522 132.753 76.1066 133.404C75.6975 134.061 75.1023 134.564 74.3211 134.911C73.54 135.264 72.6348 135.441 71.6057 135.441C70.8679 135.441 70.1519 135.301 69.4575 135.022C68.7694 134.743 68.2424 134.381 67.8766 133.934L69.1878 132.093C69.7706 132.781 70.5394 133.125 71.4941 133.125C72.8828 133.125 73.5772 132.412 73.5772 130.986V130.67C72.9758 131.334 72.2164 131.665 71.2988 131.665C70.0713 131.665 69.0794 131.197 68.323 130.261C67.5666 129.319 67.1885 128.06 67.1885 126.485V126.374ZM70.3317 126.569C70.3317 127.394 70.4867 128.048 70.7967 128.531C71.1066 129.009 71.5406 129.247 72.0986 129.247C72.7743 129.247 73.2672 129.021 73.5772 128.569V124.337C73.2734 123.878 72.7867 123.649 72.1172 123.649C71.5592 123.649 71.1221 123.9 70.806 124.402C70.4898 124.898 70.3317 125.621 70.3317 126.569Z" fill="black"/>
<path d="M81.3887 121.417L81.491 122.598C82.1854 121.687 83.1432 121.231 84.3645 121.231C85.4123 121.231 86.1934 121.544 86.708 122.17C87.2288 122.797 87.4985 123.739 87.517 124.998V131.479H84.3738V125.128C84.3738 124.619 84.2715 124.247 84.067 124.012C83.8624 123.77 83.4904 123.649 82.951 123.649C82.3373 123.649 81.8816 123.891 81.584 124.374V131.479H78.4501V121.417H81.3887Z" fill="black"/>
<path d="M94.129 131.665C92.5852 131.665 91.336 131.206 90.3813 130.289C89.4265 129.365 88.9492 128.166 88.9492 126.69V126.43C88.9492 125.4 89.1383 124.492 89.5164 123.705C89.9008 122.918 90.4588 122.31 91.1903 121.882C91.9219 121.448 92.7898 121.231 93.7942 121.231C95.2077 121.231 96.3236 121.671 97.142 122.552C97.9603 123.426 98.3695 124.647 98.3695 126.216V127.434H92.1389C92.2505 127.998 92.4954 128.441 92.8735 128.764C93.2517 129.086 93.7415 129.247 94.3428 129.247C95.3348 129.247 96.1097 128.9 96.6677 128.206L98.0998 129.898C97.7092 130.438 97.1544 130.869 96.4352 131.191C95.7223 131.507 94.9535 131.665 94.129 131.665ZM93.7756 123.649C92.858 123.649 92.3125 124.257 92.1389 125.472H95.3007V125.23C95.3131 124.728 95.186 124.34 94.9194 124.068C94.6528 123.789 94.2715 123.649 93.7756 123.649Z" fill="black"/>
<path d="M105.725 124.254L104.693 124.179C103.707 124.179 103.075 124.489 102.796 125.109V131.479H99.6621V121.417H102.601L102.703 122.71C103.23 121.724 103.965 121.231 104.907 121.231C105.242 121.231 105.533 121.268 105.781 121.343L105.725 124.254Z" fill="black"/>
<path d="M122.697 126.895C122.653 127.837 122.399 128.671 121.934 129.396C121.469 130.115 120.815 130.673 119.972 131.07C119.135 131.467 118.177 131.665 117.099 131.665C115.319 131.665 113.918 131.086 112.895 129.926C111.872 128.767 111.361 127.13 111.361 125.016V124.347C111.361 123.02 111.59 121.861 112.049 120.869C112.514 119.87 113.18 119.102 114.048 118.562C114.916 118.017 115.921 117.744 117.061 117.744C118.704 117.744 120.025 118.178 121.023 119.046C122.021 119.908 122.588 121.098 122.725 122.617H119.47C119.445 121.792 119.237 121.2 118.847 120.841C118.456 120.481 117.861 120.301 117.061 120.301C116.249 120.301 115.654 120.605 115.276 121.213C114.898 121.82 114.699 122.79 114.681 124.123V125.081C114.681 126.526 114.861 127.558 115.22 128.178C115.586 128.798 116.212 129.108 117.099 129.108C117.849 129.108 118.422 128.931 118.819 128.578C119.216 128.224 119.427 127.663 119.451 126.895H122.697Z" fill="black"/>
<path d="M129.764 131.479C129.653 131.275 129.554 130.974 129.467 130.577C128.89 131.303 128.084 131.665 127.049 131.665C126.1 131.665 125.294 131.38 124.631 130.81C123.968 130.233 123.636 129.511 123.636 128.643C123.636 127.552 124.039 126.727 124.845 126.169C125.651 125.611 126.823 125.332 128.36 125.332H129.327V124.802C129.327 123.878 128.927 123.417 128.128 123.417C127.384 123.417 127.012 123.782 127.012 124.514H123.878C123.878 123.541 124.29 122.75 125.115 122.143C125.945 121.535 127.002 121.231 128.286 121.231C129.569 121.231 130.583 121.544 131.327 122.17C132.071 122.797 132.452 123.655 132.471 124.746V129.201C132.483 130.125 132.626 130.831 132.898 131.321V131.479H129.764ZM127.802 129.433C128.193 129.433 128.515 129.35 128.769 129.182C129.03 129.015 129.216 128.826 129.327 128.615V127.006H128.416C127.325 127.006 126.779 127.496 126.779 128.476C126.779 128.761 126.875 128.993 127.068 129.173C127.26 129.347 127.505 129.433 127.802 129.433Z" fill="black"/>
<path d="M134.907 131.479V123.593H133.447V121.417H134.907V120.617C134.907 119.471 135.245 118.581 135.921 117.949C136.596 117.316 137.545 117 138.766 117C139.213 117 139.702 117.065 140.236 117.195L140.245 119.502C140.053 119.446 139.795 119.418 139.473 119.418C138.524 119.418 138.05 119.827 138.05 120.645V121.417H140.012V123.593H138.05V131.479H134.907Z" fill="black"/>
<path d="M145.759 131.665C144.216 131.665 142.967 131.206 142.012 130.289C141.057 129.365 140.58 128.166 140.58 126.69V126.43C140.58 125.4 140.769 124.492 141.147 123.705C141.531 122.918 142.089 122.31 142.821 121.882C143.552 121.448 144.42 121.231 145.425 121.231C146.838 121.231 147.954 121.671 148.772 122.552C149.591 123.426 150 124.647 150 126.216V127.434H143.769C143.881 127.998 144.126 128.441 144.504 128.764C144.882 129.086 145.372 129.247 145.973 129.247C146.965 129.247 147.74 128.9 148.298 128.206L149.73 129.898C149.34 130.438 148.785 130.869 148.066 131.191C147.353 131.507 146.584 131.665 145.759 131.665ZM145.406 123.649C144.489 123.649 143.943 124.257 143.769 125.472H146.931V125.23C146.944 124.728 146.816 124.34 146.55 124.068C146.283 123.789 145.902 123.649 145.406 123.649ZM145.369 117.186H148.679L146.094 120.106H143.537L145.369 117.186Z" fill="black"/>
</svg>
